<mxfile host="app.diagrams.net" agent="Mozilla/5.0 (Windows NT 10.0; Win64; x64) AppleWebKit/537.36 (KHTML, like Gecko) Chrome/141.0.0.0 Safari/537.36 Edg/141.0.0.0" version="28.2.5">
  <diagram name="Page-1" id="jIhs1a7BguIBXvsB0KyY">
    <mxGraphModel dx="1418" dy="838" grid="1" gridSize="10" guides="1" tooltips="1" connect="1" arrows="1" fold="1" page="1" pageScale="1" pageWidth="850" pageHeight="1100" math="0" shadow="0">
      <root>
        <mxCell id="0" />
        <mxCell id="1" parent="0" />
        <mxCell id="UnqwtN1UXANQ0ov9B6k0-67" value="" style="rounded=0;whiteSpace=wrap;html=1;" vertex="1" parent="1">
          <mxGeometry x="60" y="70" width="710" height="930" as="geometry" />
        </mxCell>
        <mxCell id="UnqwtN1UXANQ0ov9B6k0-1" value="Banking System" style="text;html=1;align=center;verticalAlign=middle;whiteSpace=wrap;rounded=0;" vertex="1" parent="1">
          <mxGeometry x="150" y="110" width="120" height="30" as="geometry" />
        </mxCell>
        <mxCell id="UnqwtN1UXANQ0ov9B6k0-8" value="" style="edgeStyle=none;curved=1;rounded=0;orthogonalLoop=1;jettySize=auto;html=1;fontSize=12;startSize=8;endSize=8;" edge="1" parent="1" target="UnqwtN1UXANQ0ov9B6k0-7">
          <mxGeometry relative="1" as="geometry">
            <mxPoint x="465" y="200" as="sourcePoint" />
          </mxGeometry>
        </mxCell>
        <mxCell id="UnqwtN1UXANQ0ov9B6k0-30" style="edgeStyle=orthogonalEdgeStyle;curved=1;rounded=0;orthogonalLoop=1;jettySize=auto;html=1;exitX=0;exitY=0.5;exitDx=0;exitDy=0;fontSize=12;startSize=8;endSize=8;" edge="1" parent="1" source="UnqwtN1UXANQ0ov9B6k0-7">
          <mxGeometry relative="1" as="geometry">
            <mxPoint x="400" y="720" as="targetPoint" />
            <Array as="points">
              <mxPoint x="230" y="280" />
              <mxPoint x="230" y="490" />
              <mxPoint x="200" y="490" />
              <mxPoint x="200" y="720" />
            </Array>
          </mxGeometry>
        </mxCell>
        <mxCell id="UnqwtN1UXANQ0ov9B6k0-7" value="Inactive" style="rounded=1;whiteSpace=wrap;html=1;" vertex="1" parent="1">
          <mxGeometry x="405" y="250" width="120" height="60" as="geometry" />
        </mxCell>
        <mxCell id="UnqwtN1UXANQ0ov9B6k0-17" value="" style="edgeStyle=none;curved=1;rounded=0;orthogonalLoop=1;jettySize=auto;html=1;fontSize=12;startSize=8;endSize=8;" edge="1" parent="1" source="UnqwtN1UXANQ0ov9B6k0-7" target="UnqwtN1UXANQ0ov9B6k0-16">
          <mxGeometry relative="1" as="geometry">
            <mxPoint x="465" y="390" as="sourcePoint" />
          </mxGeometry>
        </mxCell>
        <mxCell id="UnqwtN1UXANQ0ov9B6k0-16" value="Active" style="whiteSpace=wrap;html=1;rounded=1;" vertex="1" parent="1">
          <mxGeometry x="405" y="470" width="120" height="60" as="geometry" />
        </mxCell>
        <mxCell id="UnqwtN1UXANQ0ov9B6k0-18" value="[Deposit]/within allowed time" style="text;html=1;align=center;verticalAlign=middle;resizable=0;points=[];autosize=1;strokeColor=none;fillColor=none;fontSize=16;" vertex="1" parent="1">
          <mxGeometry x="240" y="400" width="230" height="30" as="geometry" />
        </mxCell>
        <mxCell id="UnqwtN1UXANQ0ov9B6k0-20" value="[deposit exceeds limit]" style="text;html=1;align=center;verticalAlign=middle;whiteSpace=wrap;rounded=0;" vertex="1" parent="1">
          <mxGeometry x="560" y="560" width="165" height="30" as="geometry" />
        </mxCell>
        <mxCell id="UnqwtN1UXANQ0ov9B6k0-21" value="Locked" style="rounded=1;whiteSpace=wrap;html=1;" vertex="1" parent="1">
          <mxGeometry x="590" y="680" width="120" height="60" as="geometry" />
        </mxCell>
        <mxCell id="UnqwtN1UXANQ0ov9B6k0-62" value="" style="edgeStyle=none;curved=1;rounded=0;orthogonalLoop=1;jettySize=auto;html=1;fontSize=12;startSize=8;endSize=8;" edge="1" parent="1" source="UnqwtN1UXANQ0ov9B6k0-22" target="UnqwtN1UXANQ0ov9B6k0-61">
          <mxGeometry relative="1" as="geometry" />
        </mxCell>
        <mxCell id="UnqwtN1UXANQ0ov9B6k0-22" value="Closed" style="rounded=1;whiteSpace=wrap;html=1;" vertex="1" parent="1">
          <mxGeometry x="405" y="720" width="120" height="60" as="geometry" />
        </mxCell>
        <mxCell id="UnqwtN1UXANQ0ov9B6k0-27" value="" style="ellipse;html=1;shape=endState;fillColor=#000000;strokeColor=#ff0000;" vertex="1" parent="1">
          <mxGeometry x="465" y="930" width="30" height="30" as="geometry" />
        </mxCell>
        <mxCell id="UnqwtN1UXANQ0ov9B6k0-31" value="No deposit within allowed time" style="text;html=1;align=center;verticalAlign=middle;whiteSpace=wrap;rounded=0;" vertex="1" parent="1">
          <mxGeometry x="220" y="720" width="130" height="40" as="geometry" />
        </mxCell>
        <mxCell id="UnqwtN1UXANQ0ov9B6k0-33" value="" style="ellipse;html=1;shape=startState;fillColor=#000000;strokeColor=#ff0000;" vertex="1" parent="1">
          <mxGeometry x="450" y="170" width="30" height="30" as="geometry" />
        </mxCell>
        <mxCell id="UnqwtN1UXANQ0ov9B6k0-39" value="" style="edgeStyle=none;curved=1;rounded=0;orthogonalLoop=1;jettySize=auto;html=1;fontSize=12;startSize=8;endSize=8;" edge="1" parent="1" target="UnqwtN1UXANQ0ov9B6k0-22">
          <mxGeometry relative="1" as="geometry">
            <mxPoint x="465" y="640" as="sourcePoint" />
          </mxGeometry>
        </mxCell>
        <mxCell id="UnqwtN1UXANQ0ov9B6k0-42" value="" style="edgeStyle=none;curved=1;rounded=0;orthogonalLoop=1;jettySize=auto;html=1;fontSize=12;startSize=8;endSize=8;exitX=0.5;exitY=1;exitDx=0;exitDy=0;" edge="1" parent="1" source="UnqwtN1UXANQ0ov9B6k0-16" target="UnqwtN1UXANQ0ov9B6k0-22">
          <mxGeometry relative="1" as="geometry">
            <mxPoint x="465" y="630" as="sourcePoint" />
          </mxGeometry>
        </mxCell>
        <mxCell id="UnqwtN1UXANQ0ov9B6k0-54" value="" style="edgeStyle=none;curved=1;rounded=0;orthogonalLoop=1;jettySize=auto;html=1;fontSize=12;startSize=8;endSize=8;" edge="1" parent="1" target="UnqwtN1UXANQ0ov9B6k0-21">
          <mxGeometry relative="1" as="geometry">
            <mxPoint x="530" y="510" as="sourcePoint" />
          </mxGeometry>
        </mxCell>
        <mxCell id="UnqwtN1UXANQ0ov9B6k0-51" value="Customer closes account" style="text;html=1;align=center;verticalAlign=middle;resizable=0;points=[];autosize=1;strokeColor=none;fillColor=none;fontSize=16;" vertex="1" parent="1">
          <mxGeometry x="255" y="590" width="200" height="30" as="geometry" />
        </mxCell>
        <mxCell id="UnqwtN1UXANQ0ov9B6k0-59" value="" style="endArrow=classic;html=1;rounded=0;fontSize=12;startSize=8;endSize=8;curved=1;" edge="1" parent="1" target="UnqwtN1UXANQ0ov9B6k0-61">
          <mxGeometry width="50" height="50" relative="1" as="geometry">
            <mxPoint x="650" y="740" as="sourcePoint" />
            <mxPoint x="570" y="890" as="targetPoint" />
          </mxGeometry>
        </mxCell>
        <mxCell id="UnqwtN1UXANQ0ov9B6k0-66" value="" style="edgeStyle=none;curved=1;rounded=0;orthogonalLoop=1;jettySize=auto;html=1;fontSize=12;startSize=8;endSize=8;" edge="1" parent="1" source="UnqwtN1UXANQ0ov9B6k0-61" target="UnqwtN1UXANQ0ov9B6k0-27">
          <mxGeometry relative="1" as="geometry" />
        </mxCell>
        <mxCell id="UnqwtN1UXANQ0ov9B6k0-61" value="" style="shape=line;html=1;strokeWidth=6;strokeColor=#ff0000;" vertex="1" parent="1">
          <mxGeometry x="380" y="840" width="200" height="10" as="geometry" />
        </mxCell>
        <mxCell id="UnqwtN1UXANQ0ov9B6k0-69" value="Start" style="text;html=1;align=center;verticalAlign=middle;whiteSpace=wrap;rounded=0;" vertex="1" parent="1">
          <mxGeometry x="365" y="160" width="60" height="30" as="geometry" />
        </mxCell>
      </root>
    </mxGraphModel>
  </diagram>
</mxfile>
